<svg id="Warstwa_1" data-name="Warstwa 1" xmlns="http://www.w3.org/2000/svg" xmlns:xlink="http://www.w3.org/1999/xlink" viewBox="0 0 500 500.5"><defs><style>.cls-1{fill:none;}.cls-2{fill:#635d5a;}.cls-3{fill:#737777;}.cls-4{fill:#929190;}.cls-5{fill:url(#Elephant);}.cls-6{opacity:0.35;}.cls-12,.cls-7{fill:#fff;}.cls-10,.cls-11,.cls-12,.cls-7,.cls-8,.cls-9{stroke:#000;stroke-miterlimit:10;}.cls-10,.cls-11,.cls-7,.cls-8,.cls-9{stroke-width:1.2px;}.cls-8{fill:green;}.cls-9{fill:red;}.cls-10{fill:#58c2ff;}.cls-11{fill:#ff0;}</style><pattern id="Elephant" data-name="Elephant" width="72" height="72" patternUnits="userSpaceOnUse" viewBox="0 0 72 72"><rect class="cls-1" width="72" height="72"/><path class="cls-2" d="M74.55,71.58l-2.64,3.91L68,79.6A6.91,6.91,0,0,0,72.6,77l3.7-5.37Z"/><path class="cls-3" d="M66.73,109.92l-12-3.25-3.52,7.1-7.35,3.49-8.62-2L29,112.16l-4.37-3.9L21.1,92.47l8.71-8.63,3.5-11.5-12.11-18,6.5,1.5L46.06,75.17S42.25,86.71,42.23,88.8s2.19,2.8,4.47,4.08c.52.3,4.25-4.84,5-6,2.25-3.5,2.61-6.18,5.5-6.75,1.29-.25,7.25,1.25,7,5,0,0,0,8.34,2,10.76a18.59,18.59,0,0,1,2.51,4c2,4.5,10,10.5,10,10.5l.5,6Z"/><polygon class="cls-3" points="77.2 59.38 56.2 64.38 65.2 74.38 75.7 77.88 77.2 59.38"/><polygon class="cls-3" points="23.73 63.75 14.2 71.88 17.2 81.88 25.7 76.88 30.7 72.88 39.7 86.88 39.7 75.38 35.48 66.84 29.7 57.88 23.73 63.75"/><path class="cls-2" d="M64.73,67.67,62.2,72.89,60.48,74.4l-1.95,2.16s-1.12.8-1.55,9.86-10.09,18.82-10.09,18.82l-10.35,8.63S26,129.63,25.6,130.5s2.53-9.73,2.53-9.73L31.58,116l12.29-10.14a28.31,28.31,0,0,0,6.26-9.49c2.8-6.47,3.88-8.19,4.09-10.35S50.77,83,60,72Z"/><path class="cls-2" d="M73.07,68.84,71.49,72l-.8,2.8-1.2,2.13-1.42,1.84-1.56,6.85s1.73,7.12,0,9.93-3.45,7.55-4.32,9.7-4.31,11.22-5.82,12.3-13.59,6.25-18.55,11-17,20.92-21.52,22.64c3.23-3.88,17.86-21.77,19.8-23.28s11.64-10.79,16.6-12.51,5.18-6.9,7.55-11.22,5.83-13.37,5.83-18.33a42.9,42.9,0,0,1,1.67-10.51Z"/><path class="cls-2" d="M52.77,69.64l-1.3,7-1.73,3.88L47.81,84.5a33.63,33.63,0,0,0-4,3.25,69.21,69.21,0,0,1-5.5,6c-.86.65-6,3.45-6,3.45,3.45-2.16,7.08-7.11,7.08-7.11s1.51-5,4.1-6.26,5.61-6,5.61-6.9.29-6.05.29-6.05Z"/><path class="cls-2" d="M2.06,82.92C2.3,82.17,1.75,81.74,2,81s1-.81,1.16-1.33a4.85,4.85,0,0,0,.09-2,12.94,12.94,0,0,1,.91-3.17c.34-.66,1.25-2.15,1.25-2.15l2.67-1.84L6.22,74s-1,5.18-1,5.68.17,8.35.17,8.35l1.5,6.86-.58,5L8.89,103s1.68,5.78,1.68,6.28,2.67,4,2.67,4l3.84,4.51,2.34,3.34s.34,2.68.67,5.35,1.17,3.84,2.34,6.18,6,6.52,6,6.52l1.5,4-.67,7c-1-2.17-1-7.84-1-7.84s-2.17-4.18-3.18-4.85-3-1.84-3.5-3.18-2.18-6.51-2.18-6.51l-1-6.32s-1.35-3.38-3.85-4.55-3.18-2-4-4.51a44,44,0,0,0-2.51-5.6L5.51,100l.38-3.91s-2.51-8.53-2-11.54a69.78,69.78,0,0,0,.67-7,30.88,30.88,0,0,1-.86,3.3c-.21.61-.44,1.25-.71,1.84a27.14,27.14,0,0,1-2.59,4A19.92,19.92,0,0,0,2.06,82.92Z"/><path class="cls-2" d="M15.91,59.34s.57,4.33.57,6.34,4.33,6.15,3.66,9.66-.95,2.91-.78,4.24.66,3.68,0,4.51c-1.17-3.67-.67-9-.67-9s-3.78-7-3.61-9.55Z"/><path class="cls-2" d="M2.55,71.58-.09,75.49-4,79.6A6.91,6.91,0,0,0,.6,77l3.7-5.37Z"/><path class="cls-2" d="M37,66.34A3,3,0,0,0,35.81,69c0,2-2.33,5.17-2.33,5.17s.33,2.17.5,4,.16,5.67.16,5.67c-1.66-1-1.16-6.5-1.16-6.5s-.5-4.17.33-5,1.67-3.5,2.17-5.5Z"/><path class="cls-2" d="M41,65.67s-.34,2.5-.5,3.33-.17,4.34-.17,4.34l-.17,4.17-1.33,3.16-2.5,2.5-.33-.5c.21-1,2.51-4.67,2.91-6.25a33.33,33.33,0,0,0,.75-4.58s.17-5.34.17-6.17Z"/><path class="cls-2" d="M46.14,69.5a16.42,16.42,0,0,0-.83,4.5c.17,1.34-.17,8.26,1,9.26-1.67-.84-2.17-5.42-2.17-6.92S45.31,70.5,45.31,69Z"/><path class="cls-2" d="M30,71.2l-.14,12.64c-1-2.17-1.53-13.47-1.53-13.47Z"/><path class="cls-2" d="M42.37,54.89l-2.68,1.58s-1.15,1.44-1.5,1.8a10.06,10.06,0,0,0-1,2c-.23.48-2.64,3.94-2.64,3.94S32,65.93,31,66.66l-2.67,2-1.6,2.39-1.71,3.21L29.52,74l2.94.1-6.61,1.31-1.63.41-2,.89-2.94,1.6-1.73,1.8.07,6.12,3.67,1-2,.16-2-.32-1.8-5.77-4.88-2.49,0-.91L9.81,76.5l-.17-1.16-.16-3,2.39,5.81s3.75,1.13,4.1.76,7.8-4.45,7.8-4.45l2.28-3.82,2.41-3.46.82-.37,2.43-2.29,1.64-.5,1-1.32,1.22-3.44,2.44-2S41.28,53.37,42.37,54.89Z"/><path class="cls-2" d="M74.55,71.58l-2.64,3.91L68,79.6A6.91,6.91,0,0,0,72.6,77l3.7-5.37Z"/><polygon class="cls-2" points="23.73 63.75 20.73 66.59 20.14 69.17 17.73 71.75 15.81 72.84 13.72 73.42 10.56 74.92 8.81 75.42 7.84 75.73 6.89 79 5.47 80.42 4.06 83.84 4.81 85 4.64 83.75 5.81 81.67 7.64 79.92 10.31 76.84 12.56 75 15.56 74.25 17.64 72.67 20.48 70.09 22.06 66.5 23.73 63.75"/><path class="cls-2" d="M16,78.91l2.51-2.41v-2A6.57,6.57,0,0,1,20,73.17a18.26,18.26,0,0,0,2.5-2.33l1.83-2.34-.83,2.34-2.17,2.33L19.48,74.5v2.84Z"/><path class="cls-3" d="M-5.27,109.92l-12-3.25-3.52,7.1-7.34,3.49-8.63-2L-43,112.16l-4.37-3.9L-50.9,92.47l8.71-8.63,3.5-11.5-12.11-18,6.5,1.5,18.36,19.29s-3.81,11.54-3.83,13.63,2.19,2.8,4.47,4.08c.52.3,4.25-4.84,5-6,2.25-3.5,2.62-6.18,5.5-6.75,1.29-.25,7.25,1.25,7,5,0,0,0,8.34,2,10.76a18.59,18.59,0,0,1,2.51,4c2,4.5,10,10.5,10,10.5l.5,6Z"/><polygon class="cls-3" points="5.2 59.38 -15.8 64.38 -6.8 74.38 3.7 77.88 5.2 59.38"/><path class="cls-2" d="M1.07,68.84-.51,72l-.8,2.8-1.2,2.13-1.42,1.84-1.56,6.85s1.73,7.12,0,9.93-3.45,7.55-4.32,9.7-4.31,11.22-5.82,12.3-13.58,6.25-18.54,11-17,20.92-21.53,22.64c3.23-3.88,17.86-21.77,19.8-23.28s11.64-10.79,16.61-12.51,5.17-6.9,7.54-11.22,5.83-13.37,5.83-18.33A42.9,42.9,0,0,1-4.24,75.32Z"/><path class="cls-2" d="M2.55,71.58-.09,75.49-4,79.6A6.94,6.94,0,0,0,.61,77L4.3,71.64Z"/><path class="cls-3" d="M68.7,27.88c2,4.5,10,10.5,10,10.5l.5,6L66.72,37.92Z"/><polygon class="cls-3" points="69.39 72.63 76.89 78.63 89.7 68.38 84.7 58.88 77.2 59.38 69.2 52.38 69.39 72.63"/><path class="cls-2" d="M69.84,53.7a23.93,23.93,0,0,0,3.63-2.53c.5-.75,7.25-9.5,7.25-9.5l6.75-7.5,5.5-5.5,9.5-8.5,4.51-.5,3-.25,4.25-2.62L109,17.92l-7.26-.75-3.25,5.75L97,24l-9.78,7.38S86.21,32.57,85,34c-1.79,2-4,4.52-4.49,5-.75.75-6.75,8.5-10.25,11.5Z"/><path class="cls-2" d="M95.7,25.17l-.65,4.36L95.21,32l-.15,1-.51,3.48-3.08,4.4L88.94,47.3,85.64,55,81.4,61.81l-4.18,4.61-2.67,5.16-2.64,3.91L68,79.6A6.91,6.91,0,0,0,72.6,77l3.7-5.37,4.91-4.58,2.22-6.17L86.64,55l3-5.65,3.46-5.88,2.19-5.18,2-6.43,1.22-6.47,1.37-3.2Z"/><path class="cls-2" d="M69.18,58a3.77,3.77,0,0,0,3.13-2.15,24,24,0,0,1,5-6s10.25-3.75,13-1.75l-4.25.75a8.18,8.18,0,0,0-4.5,2c-1.75,1.75-3.75,4-5.5,5s-6,3.5-6.5,4.5Z"/><path class="cls-2" d="M116.23,12.42s-2.75-.5-5.75-1.25-2.25-2-6-1.25-7.26,1-8,1.75-6.25,3.25-8.5,3.25c-1.25,0-2.52,1.45-4.74,3.14a18.77,18.77,0,0,1-2.65,1.5C78,20.84,69.32,23.49,68.47,24.34c.67-.24,7.2-1,8.34-1.5,2.86-1.19,6.43-3.65,8.23-4.51,2-1,4-1.61,5.68-1.16,3.75,1,8.5-6.75,13.76-5.25S114,13.17,116.23,12.42Z"/><path class="cls-2" d="M65.64,10.59,70.77,12a8.07,8.07,0,0,1,2.1,3.09c.44,1.45,1.15,2.38,1.6,3.87.15.47.87.74,1,1.17a9.24,9.24,0,0,1,.08,3.82l2.34,9.52s.34,1.18.64,2.61a12.07,12.07,0,0,1,.36,4.41,12.11,12.11,0,0,0,.33,6.85,44.61,44.61,0,0,0,4,6.19l4.68,5.85s.56,4.33.56,6.33,4.34,6.16,3.67,9.67-1,2.9-.79,4.24.67,3.68,0,4.51c-1.16-3.68-.66-9-.66-9s-3.78-7-3.61-9.55.33-4.85-1.51-6.52-4.51-7.69-6-9-2-3.34-2-7,.5-4,0-5.85,0-5.28-1.67-8.19a38.16,38.16,0,0,1-2-6.47c-.13-.57-.31-2-.39-2.36a25.72,25.72,0,0,0-2.27-4.56c-.5-.87-2-1.89-2-2.44Z"/><path class="cls-2" d="M74.55-.42,71.91,3.49,68,7.6A6.91,6.91,0,0,0,72.6,5L76.3-.36Z"/><path class="cls-2" d="M60,28.84l4.84,1.5,4.83,1.33,7.17.34,3.33-1.67L83,29s1.84-2,3-3,2.84-2.66,2.84-2.66l1.66.16-1-1.16H87.81l-1.84,2-1.66,1.83A12.9,12.9,0,0,0,82,27.84a12.76,12.76,0,0,1-2.5,1.67l-3.83,2-4.33-.67-3.5-1L71,29.17l3.67-.5,3.83-1.5,2.34-2L84,21.67l-1.66,1-3.67,2.5L75,27l-4.5,1.16-3.16.67-3.67-.17-3-.83-2.5-1.17Z"/><path class="cls-2" d="M67.47,38.67l2.84,1.17.83-.67,3.67-1L78.14,35l4-1.17-2.5-.67-3,1.5-2.33,2.5-3.34.5S68.64,39.34,67.47,38.67Z"/><polygon class="cls-2" points="63.97 70.17 70.14 69.34 72.31 66.5 75.47 63.33 77.47 62 77.97 58.67 81.8 56 83.73 53.98 80.8 55 77.14 57.33 75.14 61.33 73.47 57.67 73.8 61.67 70.81 65 69.17 68.17 63.97 70.17"/><path class="cls-2" d="M69.53,16.73s3.76.59,4.44.53,3.09-.76,3.09-.76l3.26-2.77,2.31-3,5.63-2.56-2.85,0-3,1.07-3.58,2.35-1.37,2.61L75.29,15Z"/><rect class="cls-4" width="72" height="72"/><path class="cls-3" d="M66.73,37.92l-12-3.25-3.52,7.1-7.35,3.49-8.62-2L29,40.16l-4.37-3.9L21.1,20.47l8.71-8.63L33.31.34l-12.11-18,6.5,1.5L46.06,3.17S42.25,14.71,42.23,16.8s2.19,2.8,4.47,4.08c.52.3,4.25-4.84,5-6,2.25-3.5,2.61-6.18,5.5-6.75,1.29-.25,7.25,1.25,7,5,0,0,0,8.34,2,10.76a18.59,18.59,0,0,1,2.51,4c2,4.5,10,10.5,10,10.5l.5,6Z"/><path class="cls-3" d="M-3.3,27.88c2,4.5,10,10.5,10,10.5l.5,6L-5.27,37.92Z"/><polygon class="cls-3" points="77.2 59.38 69.2 52.38 62.81 45.84 56.38 45.53 46.98 47.67 42.7 53.38 45.7 62.38 56.2 64.38 65.2 74.38 75.7 77.88 77.2 59.38"/><polygon class="cls-3" points="77.2 -12.62 56.2 -7.62 65.2 2.38 75.7 5.88 77.2 -12.62"/><polygon class="cls-3" points="-2.61 72.63 4.89 78.63 17.7 68.38 12.7 58.88 5.2 59.38 -2.8 52.38 -2.61 72.63"/><path class="cls-3" d="M35.94,79.75l3-3.46.6-4-4.1-5.43,4.83-5.5L38.7,53.13l-5.5-7.75-9-2.48-8-6-1-12.5L9.7,42.88s2.47,9.47,5,11,9,9.87,9,9.87L14.2,71.88l3,10,8.5-5,5-4Z"/><polygon class="cls-3" points="23.73 -8.25 14.2 -0.12 17.2 9.88 25.7 4.88 30.7 0.88 39.7 14.88 39.7 3.38 35.48 -5.16 29.7 -14.12 23.73 -8.25"/><path class="cls-2" d="M64.73-4.33,62.2.89,60.48,2.4,58.53,4.56s-1.12.8-1.55,9.86S46.89,33.24,46.89,33.24L36.54,41.87S26,57.63,25.6,58.5s2.53-9.73,2.53-9.73L31.58,44,43.87,33.89a28.31,28.31,0,0,0,6.26-9.49c2.8-6.47,3.88-8.19,4.09-10.35S50.77,11,60,0Z"/><path class="cls-2" d="M73.07-3.16,71.49,0l-.8,2.8-1.2,2.13L68.07,6.76l-1.56,6.85s1.73,7.12,0,9.93-3.45,7.55-4.32,9.7-4.31,11.22-5.82,12.3-13.59,6.25-18.55,11-17,20.92-21.52,22.64c3.23-3.88,17.86-21.77,19.8-23.28S47.75,45.1,52.71,43.38s5.18-6.9,7.55-11.22,5.83-13.37,5.83-18.33A42.9,42.9,0,0,1,67.76,3.32Z"/><path class="cls-2" d="M66.09,85.67a42.9,42.9,0,0,1,1.67-10.51l5.31-6.48-1.58,3.15-.8,2.8-1.2,2.13-1.42,1.83-1.56,6.86Z"/><path class="cls-2" d="M52.77-2.36l-1.3,7.05L49.74,8.57,47.81,12.5a33.63,33.63,0,0,0-4,3.25,69.21,69.21,0,0,1-5.5,6c-.86.65-6,3.45-6,3.45,3.45-2.16,7.08-7.11,7.08-7.11s1.51-5,4.1-6.26,5.61-6,5.61-6.9.29-6.05.29-6.05Z"/><path class="cls-2" d="M-2.15,53.7a25.12,25.12,0,0,0,3.63-2.53c.5-.75,7.25-9.5,7.25-9.5l6.75-7.5,5.5-5.5,9.5-8.5,4.5-.5,3-.25,4.25-2.62L37,17.92l-7.25-.75-3.25,5.75L25,24l-9.77,7.38L13,34c-1.78,2-4,4.52-4.48,5-.75.75-6.75,8.5-10.25,11.5Z"/><path class="cls-2" d="M23.7,25.17l-.65,4.36L23.21,32l-.15,1-.51,3.48-3.07,4.4L16.94,47.3,13.64,55,9.4,61.81,5.23,66.42,2.55,71.58-.09,75.49-4,79.6A6.91,6.91,0,0,0,.6,77l3.7-5.37,4.91-4.58,2.22-6.17L14.64,55l2.95-5.65,3.46-5.88,2.19-5.18,2-6.43,1.23-6.47,1.36-3.2Z"/><path class="cls-2" d="M-2.82,58A3.77,3.77,0,0,0,.31,55.84a24,24,0,0,1,5-6s10.25-3.75,13-1.75l-4.25.75a8.18,8.18,0,0,0-4.5,2c-1.75,1.75-3.75,4-5.5,5s-6,3.5-6.5,4.5Z"/><path class="cls-2" d="M44.23,12.42s-2.75-.5-5.75-1.25-2.25-2-6-1.25-7.25,1-8,1.75-6.25,3.25-8.5,3.25c-1.26,0-2.53,1.45-4.75,3.14a18.77,18.77,0,0,1-2.65,1.5C6,20.84-2.68,23.49-3.52,24.34c.66-.24,7.2-1,8.33-1.5,2.86-1.19,6.43-3.65,8.23-4.51,2-1,4-1.61,5.69-1.16,3.75,1,8.5-6.75,13.75-5.25S42,13.17,44.23,12.42Z"/><path class="cls-2" d="M32,25.67l.66-3.83-.83-6.33L34,12.92l2.75-1L37,15.17,35.64,23.5l-.33-4.83.17-3.25-.17-1.75-2.67,2.5.6,5,.07,3.17,1.83,4.33,2.17,2.5,2.33,2,2.09,1.75,1.75,5.75,2.25,2.75L47,47.67l5,9-.92,7.5-.5,2c-.75-9.16-1.08-11.5-1.08-11.5A9.18,9.18,0,0,0,48.14,52c-.83-1-1-2.84-2.5-3.5a4.43,4.43,0,0,1-2.5-3.17c-.5-1.5-1.5-5.17-1.5-5.17S41,37,40.14,36a19,19,0,0,1-1.83-3.17s-.17.33-2.5-2"/><path class="cls-2" d="M26.14,15.51a24.45,24.45,0,0,0,.17-2.84l-2.17,1.5-2,1.83,1.17,2.67.83,2.67,1.17,1L28,25.63l2.12,4.71L31,34.67s2.33,2.84,2.33,3.84,2.83,5,2.83,5L37.81,49A13.38,13.38,0,0,0,41,52.51c2,1.5,2.5,3.83,4.33,6s.83,11,.83,11a16.34,16.34,0,0,0-.83,4.5c.17,1.33-.5,8,.67,9-1.67-.84-1.84-5.17-1.84-6.67s1.17-5.83,1.17-7.33.33-4.34.33-4.34l-.66-4-2.17-3L40,53.34S35.81,48,35.81,47.17a49.1,49.1,0,0,0-1.5-5.5l-1.43-1.88L32,38.62l-1.36-1.78-1-4.83S28,26.17,27,26l-2.5-3-1.67-2.66-1.33-2.67L20.31,16.5l-2.83-.66,1.25,1.33L20.31,19,20,21l2,1.34L19.14,22V19.5l-3-3.33-1.33.17,2.33,4,.17,1.5,1.17,1.66,1,3,2.23,4.13L23.31,34l2.83,1.83L28.48,37s.5,1.33,1,1.33l2.16,1.17L33,42.84V47l1.16,4.66s3.67,3.84,4.34,4.5,2.16,2.67,2.16,3.84.34,5.66.34,5.66-.34,2.5-.5,3.34-.17,4.33-.17,4.33l-1.5,3.83c.5-2.33.83-5.33.83-5.33s.17-5.33.17-6.17c0-.45-.1-2.28-.26-4A11.23,11.23,0,0,0,39,58.51c-.5-.67-3-4.17-4.17-5s-3-6.67-3-8.17-1-5-2.33-5.33-2-3.15-6.93-3.49l-1.24-4.68-1.57-2.47-2.43-6.2-1.33-2L15,19l-1.34-1L12,18.17V19.5l-.17,3.34-.33,1.5L14.92,29l2.72,3.67-.16,1.84,1.53,3,2.47.68,2.66,2.5L26,43.17l2.16,4.67,1.34,3.5a7.13,7.13,0,0,1,2,4.33c0,2.34,2,1.5,2.83,2.67s3.33,2,3.33,2l.34,2.5-1,3.5A3,3,0,0,0,35.81,69c0,2-2.33,5.16-2.33,5.16s.33,2.17.5,4,.16,5.67.16,5.67c-1.66-1-1.16-6.5-1.16-6.5s-.5-4.17.33-5,1.67-3.5,2.17-5.5,2.83-3.17.33-5-6.17-5.67-6.5-8A30.11,30.11,0,0,0,25,44.17c-1.34-1.5-1.84-4-3.34-4.33a6.42,6.42,0,0,1-2.56-1.25l-2.52-3.16-1.08-2.92-2.17-3.34-2.83-2.83.16-4.5V20l.5-1.5,1.37-1.63L10.64,10l3,5.84,5.84-1.67L25,11.34h5.66l-1.16,3.5L30.58,22l.23,3.84,1.5,3.33s1.67,3.34,2.67,4,2.16,1,2.33,3,1.5,6.67,2,7a18.84,18.84,0,0,1,2,3,2.89,2.89,0,0,1-2.67-1.83c-.16-.67-1.66-4.34-1.83-5.5s-1.33-3.84-2.5-4.5-2.5-3.17-2.83-4,0-3.5-1.34-3.33l-.33-4.17L28.64,18l.17-2.83.67-3.5L27.64,12l-.5,1.33v4.5Z"/><path class="cls-2" d="M52.23,36.42s-2.59-3.75-2.75-4.25-2.75-2.25-2.75-2.25a21.08,21.08,0,0,0-2.25-2.75A22.61,22.61,0,0,0,40.64,25c-.67-.16-3.16-2.5-3.16-2.5,0-1.33,4-5.16,4.75-5.7s1.75.12,2.91.2,3,1.5,4.34,1.84,6.33-.67,8-.67,4.41,2.25,5.75,4.75,2.25,6.42,3.58,7.25,3.67,4.5,3.5,6.5c-.5-1.16-2.17-4.5-5.17-5.83-1.51-.67-1.5-2.17-2.33-3.33s-4.17-7-6-7-4.33.5-5.17,0a45.18,45.18,0,0,0-4.33-1.66,16.11,16.11,0,0,0-4.33-1c-1.84-.17-1.17.33-2,1.5a20.8,20.8,0,0,0,2.16.83c1.33.5,3.67,1.83,5.84,2s4.16,4.17,5,4.5,1.5,2.67,2.5,2.67,3.62,1.49,3.78,2.82c.53,4.22,4.23,8.08,5.38,10.68.67,1.5,1,6.83.84,7.67a23.15,23.15,0,0,1-3.34,6.16c0-.5,2.17-6.33,2.17-7.83s-2.17-8.5-2.5-9.83-3.67-3.67-4-4.34S57,31.34,57,31.34l-3.5-3.42L50.64,24l-3.5-1.16L45,22s-4.17-1.5-4.67-1.33A6.37,6.37,0,0,0,38.81,22c0,1.67,3,1.5,4.83,2.34s2.25,3.58,4.09,4.58a10.05,10.05,0,0,1,3.41,3.92c.5.83,1.75,2.25,1.92,3.08A45.14,45.14,0,0,1,54,40.84c.16,1.83-.17,2,.83,4s5.83,4.16,5.83,6.5-1,8.17-1,9.83,3.17,7.33,3.17,8.67h0C60.14,68,61.14,67.67,60.64,66S57.81,62,59,59.67s1.33-8.17.5-8.83a66,66,0,0,1-5-5.3C53.64,44.51,51.81,37.17,52.23,36.42Z"/><path class="cls-2" d="M22.64,70.84l-5.5-5,2-6.34.28-3.67,1.89-6,4.5-5.17,2.5-4L32,35.84l1.33-3.17,4.17-5.33,2.66-2.5L42.81,21l2.83-2.83,3.34-2,2.66-3,2.17-2.33-.67,2-2.33,3-2.5,2L44.81,21l-2.5,2.5-1.83,4.09L37,31.09l-4.34,5.75-2.16,2.33-1.84,4.34-2.83,2.83L24,51.84l-2.34,6.33-1.91,6.75,3.58,5.42,1.17-.5-.17-2,.17-5,.5-3.5,2.66-4.67,5-4.16,4.67-2.67,1-1.5L37,49.17l-2.5.84-3.17,3-2,1.66-3,4L25.64,64l-.5,3.66L26,69S24.64,72.67,22.64,70.84Z"/><path class="cls-2" d="M2.06,10.92C2.3,10.17,1.75,9.74,2,9c.18-.59,1-.81,1.16-1.33a4.85,4.85,0,0,0,.09-2A12.94,12.94,0,0,1,4.14,2.5C4.48,1.84,5.39.35,5.39.35L8.06-1.49,6.22,2s-1,5.18-1,5.68.17,8.35.17,8.35l1.5,6.86-.58,5L8.89,31s1.68,5.78,1.68,6.28,2.67,4,2.67,4l3.84,4.51,2.34,3.34s.34,2.68.67,5.35,1.17,3.84,2.34,6.18,6,6.52,6,6.52l1.5,4-.67,7c-1-2.17-1-7.84-1-7.84s-2.17-4.18-3.18-4.85-3-1.84-3.5-3.18-2.18-6.51-2.18-6.51l-1-6.32S17.08,46.13,14.58,45s-3.18-2-4-4.51a44,44,0,0,0-2.51-5.6L5.51,28l.38-3.91s-2.51-8.53-2-11.54a69.78,69.78,0,0,0,.67-7,30.88,30.88,0,0,1-.86,3.3c-.21.61-.44,1.25-.71,1.84a27.14,27.14,0,0,1-2.59,4A19.92,19.92,0,0,0,2.06,10.92Z"/><path class="cls-2" d="M-6.36,10.59-1.23,12a8.07,8.07,0,0,1,2.1,3.09C1.31,16.5,2,17.43,2.48,18.92c.14.47.87.74,1,1.17a9.35,9.35,0,0,1,.07,3.82l2.34,9.52s.34,1.18.64,2.61a11.86,11.86,0,0,1,.36,4.41,12.11,12.11,0,0,0,.33,6.85,44.61,44.61,0,0,0,4,6.19l4.68,5.85s.57,4.33.57,6.33,4.33,6.16,3.66,9.67-.95,2.9-.78,4.24.66,3.68,0,4.51c-1.17-3.68-.67-9-.67-9s-3.78-7-3.61-9.55.33-4.85-1.51-6.52-4.51-7.69-6-9-2-3.34-2-7,.5-4,0-5.85,0-5.28-1.67-8.19a37.35,37.35,0,0,1-2-6.47c-.14-.57-.32-2-.39-2.36A26.78,26.78,0,0,0-.8,15.53c-.5-.87-2-1.89-2-2.44Z"/><path class="cls-2" d="M15.91-12.66s.57,4.33.57,6.34,4.33,6.15,3.66,9.66-.95,2.91-.78,4.24.66,3.68,0,4.51c-1.17-3.67-.67-9-.67-9s-3.78-7-3.61-9.55Z"/><path class="cls-2" d="M75.37,28.92c-.83-1.5-2-6.35-2.34-7.85a27.47,27.47,0,0,0-2.34-5.54c-.5-.87-2-1.89-2-2.44l-3.56-2.5L70.26,12a8.07,8.07,0,0,1,2.1,3.09C73.48,18.77,75,23.91,75,23.91Z"/><path class="cls-2" d="M2.88,75a20.09,20.09,0,0,1,2.51-2.67l2.67-1.84L6.22,74Z"/><path class="cls-2" d="M45.64,9.67l3,.84,1.67,1.16a14.76,14.76,0,0,0,4,1.5c2.67.67,3.67.67,4.67,1.17s7.75,3.08,8.25,4.08c0-1.83-6.25-6.08-7.25-6.25s-4.84,1-6.17,0-2.5-.66-4.5-2.5c.83-.5,4,0,6,.34s2.33.83,3.83.33S62.31,9,63.31,9s2.83-.17,4,.5c-.67-1.67-6.67-1-7.17-.67a8.78,8.78,0,0,1-4.66,0C54.31,8.34,52,8.51,50.64,8S46.81,8.67,45.64,9.67Z"/><path class="cls-2" d="M73.76,46.84a41.63,41.63,0,0,1-3.53,3.58,64.39,64.39,0,0,1-8,6.25c-4.31,2.89-9.91,7-10.75,7.75C49.73,65.92,40,65.67,40,65.67L29,71.84s9-3.63,10-3.63,10-.79,10-.79l7.5-4.75,8.5-6s8-4.75,8.5-5.5Z"/><path class="cls-2" d="M73.61,57.29c-1.79,1.1-3.72,2.39-4,3.05-.5,1-6.5-1.5-9.5-1.75,4-1.5,4.5-.25,6-.5s4.75.75,6.25-2.25a11.68,11.68,0,0,1,.9-1.5Z"/><path class="cls-2" d="M54.22,86.05c.22-2.11-3.28-3,5.23-13.3L60,72l6.24-7.67L62.2,72.89,60.48,74.4l-1.95,2.16s-1.12.8-1.55,9.86Z"/><path class="cls-2" d="M43.49,83.8c2.59-1.29,5.61-6,5.61-6.9,0-.54.11-2.76.19-4.35.06-1,.1-1.7.1-1.7L55.56,54.5,52.21,72.68l-.74,4-1.73,3.88Z"/><path class="cls-2" d="M2.55-.42-.09,3.49-4,7.6A6.91,6.91,0,0,0,.6,5L4.3-.36Z"/><path class="cls-2" d="M37-5.66A3,3,0,0,0,35.81-3c0,2-2.33,5.17-2.33,5.17s.33,2.17.5,4,.16,5.67.16,5.67c-1.66-1-1.16-6.5-1.16-6.5s-.5-4.17.33-5,1.67-3.5,2.17-5.5Z"/><path class="cls-2" d="M41-6.33s-.34,2.5-.5,3.33-.17,4.34-.17,4.34l-.17,4.17L38.81,8.67l-2.5,2.5-.33-.5c.21-1,2.51-4.67,2.91-6.25a33.33,33.33,0,0,0,.75-4.58s.17-5.34.17-6.17Z"/><path class="cls-2" d="M46.14-2.5A16.42,16.42,0,0,0,45.31,2c.17,1.34-.17,8.26,1,9.26-1.67-.84-2.17-5.42-2.17-6.92S45.31-1.5,45.31-3Z"/><path class="cls-2" d="M30-.8l-.14,12.64c-1-2.17-1.53-13.47-1.53-13.47Z"/><path class="cls-2" d="M51.81,46.51l3,4.66,2,3.5-.17,4.17L56,61.51l-.84.66,2.17,2.5L58.81,68l1.92,3.91L60,72l-3.56-4.11-1.34-4.58L54.48,62,56,60.17l-.42-5.67-1.92-4.16-2.83-3.83-1.33-4.17s-1.17-4-1.34-4.5A9.47,9.47,0,0,0,46.64,36c2.34.33,2.17,1.66,2.17,1.66l2,4.5Z"/><polygon class="cls-2" points="57.23 25.42 60.48 21.67 58.14 26.67 55.73 33.42 54.73 34.67 50.98 36.17 49.39 40.51 48.73 39.17 49.73 35.67 55.14 31.51 57.23 25.42"/><path class="cls-2" d="M54,50.92l-5.84,3.59-1.5,1.33-1.33,2.67-.69.89-1,1.27-1.83.5-1.5.17,2.5.33c1,0,2-1,2.67-1.66s1.66-3.34,2.33-3.84S54,53.42,54,50.92Z"/><path class="cls-2" d="M64.81,42.17,64,44.51l-1.17,1.33-1.33,2-1,1.67-.67.83-1,1.17L57,53c.83.66,2.16-.84,2.16-.84l1-1.16,2-2.17,1.5-2.5,1.5-1.67,1.5-3.83,1.17-4.5L69,32.67l-1.34,1.84-1,1.33-.83,3.33Z"/><path class="cls-2" d="M13.81,15.05c1.1-.44,1.9-2.25,1.9-2.25l4.81-3.92S24,7.3,25,7.39l.11,1.17-.3,4.28L26,8.69,25.77,7A19.14,19.14,0,0,0,28,6.17a27.86,27.86,0,0,1,3.44-1.35c.49-.11.48,1.26.48,1.26l1.61,1-.88-1.51-.07-1,2.06-.67,2.76-.66L39.7,5.06s.12-.2,2-.14A8.65,8.65,0,0,1,45,5.67l.64-1.17.66-1.19a2.89,2.89,0,0,1-2.43.58,12,12,0,0,0-3.31-.23L38,2.38a9.67,9.67,0,0,0-2.38.06c-1.5.19-3,.54-3,.54a8.75,8.75,0,0,1-1.79,1.11,18.84,18.84,0,0,1-3.08.74,10.91,10.91,0,0,0-3.24.78c-.44.28-4.3,2.06-4.3,2.06l-3.66,1.9-2.93,2.08L10.6,13.08,8.71,15.93,7,18.72l-5.06,4.2s3.51-1.18,4.89-2.79c1.2-1.41,2.38-2.78,2.57-3Z"/><path class="cls-2" d="M76.88,21c-3.47,1.26-7.82,2.71-8.4,3.3.66-.24,7.19-1,8.33-1.5Z"/><path class="cls-2" d="M75.77,15.48,69.48,19s4.09-.95,5.81-2.2Z"/><path class="cls-2" d="M42.37-17.11l-2.68,1.58s-1.15,1.44-1.5,1.8a10.06,10.06,0,0,0-1,2c-.23.48-2.64,3.94-2.64,3.94S32-6.07,31-5.34L28.37-3.29,26.77-.9,25.06,2.31,29.52,2l2.94.1L25.85,3.36l-1.63.41-2,.89L19.3,6.26l-1.73,1.8.07,6.12,3.67,1-2,.16-2-.32L15.5,9.24,10.62,6.75l0-.91L9.81,4.5,9.64,3.34l-.16-3,2.39,5.81s3.75,1.13,4.1.76,7.8-4.45,7.8-4.45l2.28-3.82,2.41-3.46.82-.37,2.43-2.29L33.35-8l1-1.32,1.22-3.44,2.44-2S41.28-18.62,42.37-17.11Z"/><path class="cls-2" d="M-12,28.84l4.83,1.5,4.83,1.33L4.81,32l3.33-1.67L11,29s1.83-2,3-3,2.83-2.66,2.83-2.66l1.67.16-1-1.16H15.81l-1.83,2-1.67,1.83A12.56,12.56,0,0,0,10,27.84a13.06,13.06,0,0,1-2.5,1.67l-3.84,2-4.33-.67-3.5-1L-1,29.17l3.66-.5,3.84-1.5,2.33-2L12,21.67l-1.67,1-3.67,2.5L3,27l-4.5,1.16-3.17.67-3.67-.17-3-.83-2.5-1.17Z"/><path class="cls-2" d="M-4.52,38.67l2.83,1.17.83-.67,3.67-1L6.14,35l4-1.17-2.5-.67-3,1.5-2.33,2.5-3.33.5S-3.36,39.34-4.52,38.67Z"/><polygon class="cls-2" points="78.64 25.17 74.97 27.01 70.47 28.17 67.31 28.84 63.64 28.67 60.64 27.84 58.23 25.92 59.98 28.84 64.81 30.34 69.64 31.67 76.81 32.01 80.14 30.34 79.47 29.51 75.64 31.51 71.31 30.84 67.81 29.84 70.97 29.17 74.64 28.67 78.47 27.17 78.64 25.17"/><path class="cls-2" d="M74.31,37.17l-3.33.5s-2.34,1.67-3.5,1l2.83,1.17.83-.67,3.67-1Z"/><polygon class="cls-2" points="7.14 71.5 10.81 66.84 13.22 62.67 15.22 59.67 17.23 55.42 19.48 51.92 17.73 56.17 17.23 59.42 15.72 60.42 14.47 61.84 12.97 67.84 11.24 68.74 9.31 70.5 7.14 71.5"/><path class="cls-2" d="M74.55-.42,71.91,3.49,68,7.6A6.91,6.91,0,0,0,72.6,5L76.3-.36Z"/><polygon class="cls-2" points="62.98 57.67 62.98 60.42 65.23 63.17 66.98 64.42 68.47 64.67 69.53 65.93 70.97 67.42 68.97 67.17 67.48 65.42 65.23 64.17 62.98 63.42 62.23 61.92 62.98 57.67"/><polygon class="cls-2" points="68.72 53.42 69.72 49.67 69.72 46.17 69.22 42.42 66.73 37.92 68.72 38.67 69.72 39.92 69.97 42.17 70.72 44.17 71.22 46.42 70.47 48.92 70.47 51.42 68.72 53.42"/><polygon class="cls-2" points="66.81 30.17 69.31 26.17 69.64 22.84 70.31 18.17 70.06 11.34 64.83 5.72 62.56 4.12 65.09 7.86 68.81 10.67 69.14 13.42 68.31 19.17 68.64 25.17 65.31 28.84 66.81 30.17"/><polygon class="cls-2" points="-8.03 70.17 -1.86 69.34 0.31 66.5 3.47 63.33 5.47 62 5.97 58.67 9.8 56 11.73 53.98 8.8 55 5.14 57.33 3.14 61.33 1.47 57.67 1.8 61.67 -1.19 65 -2.83 68.17 -8.03 70.17"/><polygon class="cls-2" points="75.14 61.33 73.47 57.67 73.8 61.67 70.81 65 69.17 68.17 63.98 70.17 70.14 69.34 72.31 66.5 75.47 63.33 75.14 61.33"/><path class="cls-2" d="M-2.47,16.73s3.76.59,4.44.53,3.1-.76,3.1-.76l3.25-2.77,2.31-3,5.63-2.56-2.85,0-3,1.07L6.85,11.61,5.49,14.22,3.29,15Z"/><path class="cls-2" d="M42.37,54.89l-2.68,1.58s-1.15,1.44-1.5,1.8a10.06,10.06,0,0,0-1,2c-.23.48-2.64,3.94-2.64,3.94S32,65.93,31,66.66l-2.67,2-1.6,2.39-1.71,3.22L29.52,74l2.94.1-6.61,1.31-1.63.41-2,.89-2.94,1.6-1.73,1.8,1.79,4,3.67,1-2,.16-2-.32L15.5,81.24l-4.88-2.49-.93-1.47-1.34-.81-.51-.74,1.86.56,2.17,1.86s3.75,1.13,4.1.76,7.8-4.45,7.8-4.45l2.28-3.82,2.41-3.46.82-.37,2.43-2.29,1.64-.5,1-1.32,1.22-3.44,2.44-2S41.28,53.37,42.37,54.89Z"/><path class="cls-2" d="M67,3.42l-3.5,1-9-.25L50.23,2.92,53,2.42l2.25-.25s2,1.5,2.75,1,4.5,0,4.5,0L65,2.92l1.75-1.75H60.48l3.25-1h5.5Z"/><path class="cls-2" d="M3.14,46.59l.31-2.81.32-3.25-.88-1.88-.5-1.31L2,35.21,0,32.53l.5,1.68L1.45,36,.33,38.53l1.44,1.56.68,2s-.18,2.19-.12,2.37,0,2.25,0,2.25Z"/><path class="cls-2" d="M49.48.75l-2.17.92-1.25,1.5L45,4.25,42.89,6.17a8.54,8.54,0,0,0-1.66-.08c-.34.08-3.09.91-3.09.91L41,6.75l1.83.42,1.42-.67L46,5.5l.75-1.75L48.31,2Z"/><polygon class="cls-2" points="23.73 -8.25 20.73 -5.41 20.14 -2.83 17.73 -0.25 15.81 0.84 13.72 1.42 10.56 2.92 8.81 3.42 7.84 3.73 6.89 7 5.47 8.42 4.06 11.84 4.81 13 4.64 11.75 5.81 9.67 7.64 7.92 10.31 4.84 12.56 3 15.56 2.25 17.64 0.67 20.48 -1.91 22.06 -5.5 23.73 -8.25"/><path class="cls-2" d="M16,6.91,18.48,4.5v-2A6.57,6.57,0,0,1,20,1.17a18.26,18.26,0,0,0,2.5-2.33L24.31-3.5l-.83,2.34L21.31,1.17,19.48,2.5V5.34Z"/><polygon class="cls-2" points="23.73 63.75 20.73 66.59 20.14 69.17 17.73 71.75 15.81 72.84 13.72 73.42 10.56 74.92 8.81 75.42 7.84 75.73 6.89 79 5.47 80.42 4.06 83.84 4.81 85 4.64 83.75 5.81 81.67 7.64 79.92 10.31 76.84 12.56 75 15.56 74.25 17.64 72.67 20.48 70.09 22.06 66.5 23.73 63.75"/><path class="cls-2" d="M16,78.91l2.51-2.41v-2A6.57,6.57,0,0,1,20,73.17a18.26,18.26,0,0,0,2.5-2.33l1.83-2.34-.83,2.34-2.17,2.33L19.48,74.5v2.84Z"/><path class="cls-3" d="M-5.27,37.92l-12-3.25-3.52,7.1-7.34,3.49-8.63-2L-43,40.16l-4.37-3.9L-50.9,20.47l8.71-8.63,3.5-11.5-12.11-18,6.5,1.5L-25.94,3.17s-3.81,11.54-3.83,13.63,2.19,2.8,4.47,4.08c.52.3,4.25-4.84,5-6,2.25-3.5,2.62-6.18,5.5-6.75,1.29-.25,7.25,1.25,7,5,0,0,0,8.34,2,10.76a18.59,18.59,0,0,1,2.51,4c2,4.5,10,10.5,10,10.5l.5,6Z"/><polygon class="cls-3" points="5.2 59.38 -2.8 52.38 -9.19 45.84 -15.62 45.53 -25.02 47.67 -29.3 53.38 -26.3 62.38 -15.8 64.38 -6.8 74.38 3.7 77.88 5.2 59.38"/><polygon class="cls-3" points="5.2 -12.62 -15.8 -7.62 -6.8 2.38 3.7 5.88 5.2 -12.62"/><path class="cls-2" d="M1.07-3.16-.51,0l-.8,2.8-1.2,2.13L-3.93,6.76l-1.56,6.85s1.73,7.12,0,9.93-3.45,7.55-4.32,9.7-4.31,11.22-5.82,12.3-13.58,6.25-18.54,11-17,20.92-21.53,22.64c3.23-3.88,17.86-21.77,19.8-23.28S-24.25,45.1-19.28,43.38s5.17-6.9,7.54-11.22,5.83-13.37,5.83-18.33A42.9,42.9,0,0,1-4.24,3.32Z"/><path class="cls-2" d="M-5.91,85.67A42.9,42.9,0,0,1-4.24,75.16l5.31-6.48L-.51,71.83l-.8,2.8-1.2,2.13-1.42,1.83-1.56,6.86Z"/><path class="cls-2" d="M3.37,28.92c-.83-1.5-2-6.35-2.34-7.85A27.87,27.87,0,0,0-1.3,15.53c-.51-.87-2-1.89-2-2.44l-3.57-2.5L-1.74,12a8.07,8.07,0,0,1,2.1,3.09C1.48,18.77,3,23.91,3,23.91Z"/><path class="cls-2" d="M1.76,46.84a41.63,41.63,0,0,1-3.53,3.58,64.39,64.39,0,0,1-8,6.25c-4.31,2.89-9.91,7-10.75,7.75-1.75,1.5-11.5,1.25-11.5,1.25l-11,6.17s9-3.63,10-3.63,10-.79,10-.79l7.5-4.75,8.5-6s8-4.75,8.5-5.5Z"/><path class="cls-2" d="M1.61,57.29c-1.79,1.1-3.72,2.39-4,3.05-.5,1-6.5-1.5-9.5-1.75,4-1.5,4.5-.25,6-.5s4.75.75,6.25-2.25a11.68,11.68,0,0,1,.9-1.5Z"/><path class="cls-2" d="M4.88,21c-3.47,1.26-7.82,2.71-8.4,3.3.66-.24,7.2-1,8.33-1.5Z"/><path class="cls-2" d="M3.78,15.48-2.52,19s4.09-.95,5.81-2.2Z"/><polygon class="cls-2" points="6.64 25.17 2.98 27.01 -1.52 28.17 -4.69 28.84 -8.36 28.67 -11.36 27.84 -13.77 25.92 -12.02 28.84 -7.19 30.34 -2.36 31.67 4.81 32.01 8.14 30.34 7.48 29.51 3.64 31.51 -0.69 30.84 -4.19 29.84 -1.02 29.17 2.64 28.67 6.48 27.17 6.64 25.17"/><path class="cls-2" d="M2.31,37.17l-3.33.5s-2.34,1.67-3.5,1l2.83,1.17.83-.67,3.67-1Z"/><path class="cls-2" d="M2.55-.42-.09,3.49-4,7.6A6.94,6.94,0,0,0,.61,5L4.3-.36Z"/><polygon class="cls-2" points="3.14 61.33 1.47 57.67 1.8 61.67 -1.19 65 -2.83 68.17 -8.02 70.17 -1.86 69.34 0.31 66.5 3.47 63.33 3.14 61.33"/><polygon class="cls-3" points="69.39 0.63 76.89 6.63 89.7 -3.62 84.7 -13.12 77.2 -12.62 69.2 -19.62 69.39 0.63"/><path class="cls-2" d="M95.7-46.83l-.65,4.36L95.21-40l-.15,1-.51,3.48-3.08,4.4L88.94-24.7,85.64-17,81.4-10.19,77.22-5.58,74.55-.42,71.91,3.49,68,7.6A6.91,6.91,0,0,0,72.6,5L76.3-.36l4.91-4.58,2.22-6.17L86.64-17l3-5.65,3.46-5.88,2.19-5.18,2-6.43,1.22-6.47,1.37-3.2Z"/><path class="cls-2" d="M65.64-61.41,70.77-60a8.07,8.07,0,0,1,2.1,3.09c.44,1.45,1.15,2.38,1.6,3.87.15.47.87.74,1,1.17a9.24,9.24,0,0,1,.08,3.82l2.34,9.52s.34,1.18.64,2.61a12.07,12.07,0,0,1,.36,4.41,12.11,12.11,0,0,0,.33,6.85,44.61,44.61,0,0,0,4,6.19l4.68,5.85s.56,4.33.56,6.33,4.34,6.16,3.67,9.67-1,2.9-.79,4.24.67,3.68,0,4.51c-1.16-3.68-.66-9-.66-9s-3.78-7-3.61-9.55.33-4.85-1.51-6.52-4.51-7.69-6-9-2-3.34-2-7,.5-4,0-5.85,0-5.28-1.67-8.19a38.16,38.16,0,0,1-2-6.47c-.13-.57-.31-2-.39-2.36a25.72,25.72,0,0,0-2.27-4.56c-.5-.87-2-1.89-2-2.44Z"/><polygon class="cls-3" points="77.2 -12.62 69.2 -19.62 62.81 -26.16 56.38 -26.46 46.98 -24.33 42.7 -18.62 45.7 -9.62 56.2 -7.62 65.2 2.38 75.7 5.88 77.2 -12.62"/><polygon class="cls-3" points="-2.61 0.63 4.89 6.63 17.7 -3.62 12.7 -13.12 5.2 -12.62 -2.8 -19.62 -2.61 0.63"/><path class="cls-3" d="M35.94,7.75l3-3.46.6-4-4.1-5.43,4.83-5.5L38.7-18.87l-5.5-7.75-9-2.48-8-6-1-12.5L9.7-29.12s2.47,9.47,5,11,9,9.87,9,9.87L14.2-.12l3,10,8.5-5,5-4Z"/><path class="cls-2" d="M73.07-75.16,71.49-72l-.8,2.8-1.2,2.13-1.42,1.84-1.56,6.85s1.73,7.12,0,9.93-3.45,7.55-4.32,9.7-4.31,11.22-5.82,12.3-13.59,6.25-18.55,11S20.84,5.45,16.31,7.17c3.23-3.88,17.86-21.77,19.8-23.28S47.75-26.9,52.71-28.62s5.18-6.9,7.55-11.22,5.83-13.37,5.83-18.33a42.9,42.9,0,0,1,1.67-10.51Z"/><path class="cls-2" d="M66.09,13.67A42.9,42.9,0,0,1,67.76,3.16l5.31-6.48L71.49-.17l-.8,2.8-1.2,2.13L68.07,6.59l-1.56,6.86Z"/><path class="cls-2" d="M23.7-46.83l-.65,4.36L23.21-40l-.15,1-.51,3.48-3.07,4.4L16.94-24.7,13.64-17,9.4-10.19,5.23-5.58,2.55-.42-.09,3.49-4,7.6A6.91,6.91,0,0,0,.6,5L4.3-.36,9.21-4.94l2.22-6.17L14.64-17l2.95-5.65,3.46-5.88,2.19-5.18,2-6.43,1.23-6.47,1.36-3.2Z"/><path class="cls-2" d="M26.14-56.49a24.45,24.45,0,0,0,.17-2.84l-2.17,1.5-2,1.83,1.17,2.67.83,2.67,1.17,1L28-46.37l2.12,4.71L31-37.33s2.33,2.84,2.33,3.84,2.83,5,2.83,5L37.81-23A13.38,13.38,0,0,0,41-19.49c2,1.5,2.5,3.83,4.33,6s.83,11,.83,11A16.34,16.34,0,0,0,45.31,2c.17,1.33-.5,8,.67,9-1.67-.84-1.84-5.17-1.84-6.67S45.31-1.49,45.31-3s.33-4.34.33-4.34l-.66-4-2.17-3L40-18.66S35.81-24,35.81-24.83a49.1,49.1,0,0,0-1.5-5.5l-1.43-1.88L32-33.37l-1.36-1.79-1-4.83S28-45.83,27-46l-2.5-3-1.67-2.66-1.33-2.67L20.31-55.5l-2.83-.66,1.25,1.33L20.31-53,20-51l2,1.34L19.14-50v-2.5l-3-3.33-1.33.17,2.33,4,.17,1.5,1.17,1.66,1,3,2.23,4.13L23.31-38l2.83,1.83L28.48-35s.5,1.33,1,1.33l2.16,1.17L33-29.16V-25l1.16,4.66s3.67,3.84,4.34,4.5,2.16,2.67,2.16,3.84S41-6.33,41-6.33s-.34,2.5-.5,3.34-.17,4.33-.17,4.33l-1.5,3.83c.5-2.33.83-5.33.83-5.33s.17-5.33.17-6.17c0-.45-.1-2.28-.26-4A11.23,11.23,0,0,0,39-13.49c-.5-.67-3-4.17-4.17-5s-3-6.67-3-8.17-1-5-2.33-5.33-2-3.15-6.93-3.49l-1.24-4.68-1.57-2.47-2.43-6.2-1.33-2L15-53l-1.34-1L12-53.83v1.33l-.17,3.34-.33,1.5L14.92-43l2.72,3.67-.16,1.84,1.53,3,2.47.68,2.66,2.5L26-28.83l2.16,4.67,1.34,3.5a7.13,7.13,0,0,1,2,4.33c0,2.34,2,1.5,2.83,2.67s3.33,2,3.33,2L38-9.16l-1,3.5A3,3,0,0,0,35.81-3c0,2-2.33,5.16-2.33,5.16s.33,2.17.5,4,.16,5.67.16,5.67c-1.66-1-1.16-6.5-1.16-6.5s-.5-4.17.33-5,1.67-3.5,2.17-5.5,2.83-3.17.33-5-6.17-5.67-6.5-8A30.11,30.11,0,0,0,25-27.83c-1.34-1.5-1.84-4-3.34-4.33a6.42,6.42,0,0,1-2.56-1.25l-2.52-3.16-1.08-2.92-2.17-3.34-2.83-2.83.16-4.5V-52l.5-1.5,1.37-1.63L10.64-62l3,5.84,5.84-1.67L25-60.66h5.66l-1.16,3.5L30.58-50l.23,3.84,1.5,3.33s1.67,3.34,2.67,4,2.16,1,2.33,3,1.5,6.67,2,7a18.84,18.84,0,0,1,2,3,2.89,2.89,0,0,1-2.67-1.83c-.16-.67-1.66-4.34-1.83-5.5s-1.33-3.84-2.5-4.5-2.5-3.17-2.83-4,0-3.5-1.34-3.33l-.33-4.17L28.64-54l.17-2.83.67-3.5L27.64-60l-.5,1.33v4.5Z"/><path class="cls-2" d="M2.06-61.08C2.3-61.83,1.75-62.26,2-63s1-.81,1.16-1.33a4.85,4.85,0,0,0,.09-2,12.94,12.94,0,0,1,.91-3.17c.34-.66,1.25-2.15,1.25-2.15l2.67-1.84L6.22-70s-1,5.18-1,5.68.17,8.35.17,8.35l1.5,6.86-.58,5L8.89-41s1.68,5.78,1.68,6.28,2.67,4,2.67,4l3.84,4.51,2.34,3.34s.34,2.68.67,5.35,1.17,3.84,2.34,6.18,6,6.52,6,6.52L30-.8l-.67,7c-1-2.17-1-7.84-1-7.84S26.11-5.81,25.1-6.48s-3-1.84-3.5-3.18-2.18-6.51-2.18-6.51l-1-6.32S17.08-25.87,14.58-27s-3.18-2-4-4.51a44,44,0,0,0-2.51-5.6L5.51-44l.38-3.91s-2.51-8.53-2-11.54a69.78,69.78,0,0,0,.67-7,30.88,30.88,0,0,1-.86,3.3c-.21.61-.44,1.25-.71,1.84a27.14,27.14,0,0,1-2.59,4A19.92,19.92,0,0,0,2.06-61.08Z"/><path class="cls-2" d="M-6.36-61.41-1.23-60a8.07,8.07,0,0,1,2.1,3.09C1.31-55.5,2-54.57,2.48-53.08c.14.47.87.74,1,1.17a9.35,9.35,0,0,1,.07,3.82l2.34,9.52s.34,1.18.64,2.61a11.86,11.86,0,0,1,.36,4.41,12.11,12.11,0,0,0,.33,6.85,44.61,44.61,0,0,0,4,6.19l4.68,5.85s.57,4.33.57,6.33,4.33,6.16,3.66,9.67-.95,2.9-.78,4.24.66,3.68,0,4.51c-1.17-3.68-.67-9-.67-9s-3.78-7-3.61-9.55.33-4.85-1.51-6.52-4.51-7.69-6-9-2-3.34-2-7,.5-4,0-5.85,0-5.28-1.67-8.19a37.35,37.35,0,0,1-2-6.47c-.14-.57-.32-2-.39-2.36A26.78,26.78,0,0,0-.8-56.47c-.5-.87-2-1.89-2-2.44Z"/><path class="cls-2" d="M2.88,3A20.09,20.09,0,0,1,5.39.35L8.06-1.49,6.22,2Z"/><path class="cls-2" d="M54.22,14.05c.22-2.11-3.28-3,5.23-13.3L60,0l6.24-7.67L62.2.89,60.48,2.4,58.53,4.56s-1.12.8-1.55,9.86Z"/><path class="cls-2" d="M43.49,11.8c2.59-1.29,5.61-6,5.61-6.9,0-.54.11-2.76.19-4.35.06-1,.1-1.7.1-1.7L55.56-17.5,52.21.68l-.74,4L49.74,8.57Z"/><path class="cls-2" d="M51.81-25.49l3,4.66,2,3.5-.17,4.17L56-10.49l-.84.66,2.17,2.5L58.81-4,60.73-.08,60,0,56.48-4.08,55.14-8.66,54.48-10,56-11.83l-.42-5.67-1.92-4.16-2.83-3.83-1.33-4.17s-1.17-4-1.34-4.5A9.47,9.47,0,0,0,46.64-36c2.34.33,2.17,1.66,2.17,1.66l2,4.5Z"/><path class="cls-2" d="M42.37-17.11l-2.68,1.58s-1.15,1.44-1.5,1.8a10.06,10.06,0,0,0-1,2c-.23.48-2.64,3.94-2.64,3.94S32-6.07,31-5.34L28.37-3.29,26.77-.9,25.06,2.32,29.52,2l2.94.1L25.85,3.36l-1.63.41-2,.89L19.3,6.26l-1.73,1.8,1.79,4,3.67,1-2,.16-2-.32L15.5,9.24,10.62,6.75,9.69,5.28,8.35,4.47l-.51-.74,1.86.56,2.17,1.86s3.75,1.13,4.1.76,7.8-4.45,7.8-4.45l2.28-3.82,2.41-3.46.82-.37,2.43-2.29L33.35-8l1-1.32,1.22-3.44,2.44-2S41.28-18.62,42.37-17.11Z"/><polygon class="cls-2" points="23.73 -8.25 20.73 -5.41 20.14 -2.83 17.73 -0.25 15.81 0.84 13.72 1.42 10.56 2.92 8.81 3.42 7.84 3.73 6.89 7 5.47 8.42 4.06 11.84 4.81 13 4.64 11.75 5.81 9.67 7.64 7.92 10.31 4.84 12.56 3 15.56 2.25 17.64 0.67 20.48 -1.91 22.06 -5.5 23.73 -8.25"/><path class="cls-2" d="M16,6.91,18.48,4.5v-2A6.57,6.57,0,0,1,20,1.17a18.26,18.26,0,0,0,2.5-2.33L24.31-3.5l-.83,2.34L21.31,1.17,19.48,2.5V5.34Z"/><polygon class="cls-3" points="5.2 -12.62 -2.8 -19.62 -9.19 -26.16 -15.62 -26.46 -25.02 -24.33 -29.3 -18.62 -26.3 -9.62 -15.8 -7.62 -6.8 2.38 3.7 5.88 5.2 -12.62"/><path class="cls-2" d="M1.07-75.16-.51-72l-.8,2.8-1.2,2.13-1.42,1.84-1.56,6.85s1.73,7.12,0,9.93-3.45,7.55-4.32,9.7-4.31,11.22-5.82,12.3-13.58,6.25-18.54,11-17,20.92-21.53,22.64c3.23-3.88,17.86-21.77,19.8-23.28S-24.25-26.9-19.28-28.62s5.17-6.9,7.54-11.22,5.83-13.37,5.83-18.33A42.9,42.9,0,0,1-4.24-68.68Z"/><path class="cls-2" d="M-5.91,13.67A42.9,42.9,0,0,1-4.24,3.16L1.07-3.32-.51-.17l-.8,2.8-1.2,2.13L-3.93,6.59l-1.56,6.86Z"/></pattern></defs><title>plansza</title><rect class="cls-5" x="0.5" y="0.5" width="499" height="500"/><rect class="cls-6" width="500" height="500"/><path d="M290.88,26.12v183h183v81.76h-183v183H209.12v-183h-183V209.12h183v-183h81.76M292,25H208V208H25v84H208V475h84V292H475V208H292V25Z"/><circle class="cls-7" cx="475" cy="250" r="14.4"/><circle class="cls-8" cx="475" cy="292" r="14.4"/><circle class="cls-7" cx="475" cy="208" r="14.4"/><circle class="cls-7" cx="429.25" cy="208" r="14.23"/><circle class="cls-7" cx="383.5" cy="208" r="14.06"/><circle class="cls-7" cx="337.75" cy="208" r="13.89"/><circle class="cls-7" cx="292" cy="208" r="13.73"/><circle class="cls-7" cx="26.56" cy="250" r="14.4"/><circle class="cls-7" cx="26.56" cy="292" r="14.4"/><circle class="cls-9" cx="26.56" cy="208" r="14.4"/><circle class="cls-7" cx="72.31" cy="208" r="14.23"/><circle class="cls-7" cx="118.06" cy="208" r="14.06"/><circle class="cls-7" cx="163.81" cy="208" r="13.89"/><circle class="cls-7" cx="209.56" cy="208" r="13.73"/><circle class="cls-7" cx="250" cy="24.78" r="14.4"/><circle class="cls-7" cx="208" cy="24.78" r="14.4"/><circle class="cls-10" cx="292" cy="24.78" r="14.4"/><circle class="cls-7" cx="292" cy="70.53" r="14.23"/><circle class="cls-7" cx="292" cy="116.28" r="14.06"/><circle class="cls-7" cx="292" cy="162.03" r="13.89"/><circle class="cls-7" cx="251.78" cy="474.22" r="14.4"/><circle class="cls-7" cx="293.78" cy="474.22" r="14.4"/><circle class="cls-11" cx="209.78" cy="474.22" r="14.4"/><circle class="cls-7" cx="209.78" cy="428.47" r="14.23"/><circle class="cls-7" cx="209.78" cy="382.72" r="14.06"/><circle class="cls-7" cx="209.78" cy="336.97" r="13.89"/><circle class="cls-7" cx="209.78" cy="291.22" r="13.73"/><circle class="cls-7" cx="293.78" cy="428.47" r="14.23"/><circle class="cls-7" cx="293.78" cy="382.72" r="14.06"/><circle class="cls-7" cx="293.78" cy="336.97" r="13.89"/><circle class="cls-7" cx="293.78" cy="291.22" r="13.73"/><circle class="cls-7" cx="208.28" cy="161.61" r="14.23"/><circle class="cls-7" cx="208.28" cy="115.86" r="14.06"/><circle class="cls-7" cx="208.28" cy="70.11" r="13.89"/><circle class="cls-7" cx="72.67" cy="291" r="14.23"/><circle class="cls-7" cx="118.42" cy="291" r="14.06"/><circle class="cls-7" cx="164.17" cy="291" r="13.89"/><circle class="cls-7" cx="337.67" cy="291" r="14.23"/><circle class="cls-7" cx="383.42" cy="291" r="14.06"/><circle class="cls-7" cx="429.17" cy="291" r="13.89"/><circle class="cls-12" cx="52.5" cy="382.5" r="22"/><circle class="cls-12" cx="118.5" cy="382.5" r="22"/><circle class="cls-12" cx="118.5" cy="440.5" r="22"/><circle class="cls-12" cx="52.5" cy="440.5" r="22"/><circle class="cls-12" cx="375.5" cy="382.5" r="22"/><circle class="cls-12" cx="441.5" cy="382.5" r="22"/><circle class="cls-12" cx="441.5" cy="440.5" r="22"/><circle class="cls-12" cx="375.5" cy="440.5" r="22"/><circle class="cls-12" cx="375.5" cy="46.5" r="22"/><circle class="cls-12" cx="441.5" cy="46.5" r="22"/><circle class="cls-12" cx="441.5" cy="104.5" r="22"/><circle class="cls-12" cx="375.5" cy="104.5" r="22"/><circle class="cls-12" cx="46.5" cy="46.5" r="22"/><circle class="cls-12" cx="112.5" cy="46.5" r="22"/><circle class="cls-12" cx="112.5" cy="104.5" r="22"/><circle class="cls-12" cx="46.5" cy="104.5" r="22"/></svg>